HIERARCHY
ROOT root
{
  OFFSET 0 98.6856 0
  CHANNELS 6 Xposition Yposition Zposition Zrotation Xrotation Yrotation
  JOINT torso_1
  {
    OFFSET 0 5.37224 -1.21793
    CHANNELS 6 Xposition Yposition Zposition Zrotation Xrotation Yrotation
    JOINT torso_2
    {
      OFFSET 0 5.94127 1.13336
      CHANNELS 6 Xposition Yposition Zposition Zrotation Xrotation Yrotation
      JOINT torso_3
      {
        OFFSET -1.08535e-17 6.33601 0.121658
        CHANNELS 6 Xposition Yposition Zposition Zrotation Xrotation Yrotation
        JOINT torso_4
        {
          OFFSET -1.16841e-17 6.88189 -0.46916
          CHANNELS 6 Xposition Yposition Zposition Zrotation Xrotation Yrotation
          JOINT torso_5
          {
            OFFSET -2.08699e-17 8.0451 -1.59297
            CHANNELS 6 Xposition Yposition Zposition Zrotation Xrotation Yrotation
            JOINT torso_6
            {
              OFFSET -2.67949e-17 10.0463 -0.967353
              CHANNELS 6 Xposition Yposition Zposition Zrotation Xrotation Yrotation
              JOINT torso_7
              {
                OFFSET -3.07187e-17 11.1612 1.66806
                CHANNELS 6 Xposition Yposition Zposition Zrotation Xrotation Yrotation
                JOINT neck_1
                {
                  OFFSET -1.36661e-17 5.06312 0.756688
                  CHANNELS 6 Xposition Yposition Zposition Zrotation Xrotation Yrotation
                  JOINT neck_2
                  {
                    OFFSET -1.91632e-17 5.09976 0.446172
                    CHANNELS 6 Xposition Yposition Zposition Zrotation Xrotation Yrotation
                    JOINT head
                    {
                      OFFSET -2.12574e-17 5.10962 0.809285
                      CHANNELS 6 Xposition Yposition Zposition Zrotation Xrotation Yrotation
                      End Site
                      {
                        OFFSET 0 0.1 0
                      }
                    }
                  }
                }
                JOINT l_shoulder
                {
                  OFFSET 1.30426 -8.04703 7.96922
                  CHANNELS 6 Xposition Yposition Zposition Zrotation Xrotation Yrotation
                  JOINT l_up_arm
                  {
                    OFFSET 13.7035 3.43734 -3.45766
                    CHANNELS 6 Xposition Yposition Zposition Zrotation Xrotation Yrotation
                    JOINT l_low_arm
                    {
                      OFFSET 30.8964 0.0632652 0.14496
                      CHANNELS 6 Xposition Yposition Zposition Zrotation Xrotation Yrotation
                      JOINT l_hand
                      {
                        OFFSET 25.6348 0.0524902 0.120274
                        CHANNELS 6 Xposition Yposition Zposition Zrotation Xrotation Yrotation
                        End Site
                        {
                          OFFSET 0.1 0 0
                        }
                      }
                    }
                  }
                }
                JOINT r_shoulder
                {
                  OFFSET -1.30426 -8.04702 7.96912
                  CHANNELS 6 Xposition Yposition Zposition Zrotation Xrotation Yrotation
                  JOINT r_up_arm
                  {
                    OFFSET -13.7035 3.43734 -3.45766
                    CHANNELS 6 Xposition Yposition Zposition Zrotation Xrotation Yrotation
                    JOINT r_low_arm
                    {
                      OFFSET -30.8964 0.0632652 0.14496
                      CHANNELS 6 Xposition Yposition Zposition Zrotation Xrotation Yrotation
                      JOINT r_hand
                      {
                        OFFSET -25.6348 0.0524901 0.120274
                        CHANNELS 6 Xposition Yposition Zposition Zrotation Xrotation Yrotation
                        End Site
                        {
                          OFFSET -0.1 0 0
                        }
                      }
                    }
                  }
                }
              }
            }
          }
        }
      }
    }
  }
  JOINT l_up_leg
  {
    OFFSET 9.77065 -4.44866 2.1502
    CHANNELS 6 Xposition Yposition Zposition Zrotation Xrotation Yrotation
    JOINT l_low_leg
    {
      OFFSET -0.901622 -41.0132 -0.693059
      CHANNELS 6 Xposition Yposition Zposition Zrotation Xrotation Yrotation
      JOINT l_foot
      {
        OFFSET -2.46068 -42.7371 -6.39839
        CHANNELS 6 Xposition Yposition Zposition Zrotation Xrotation Yrotation
        JOINT l_toes
        {
          OFFSET 0.82413 -10.4558 13.2182
          CHANNELS 6 Xposition Yposition Zposition Zrotation Xrotation Yrotation
          End Site
          {
            OFFSET 0 0 0.1
          }
        }
      }
    }
  }
  JOINT r_up_leg
  {
    OFFSET -9.77065 -4.44866 2.1502
    CHANNELS 6 Xposition Yposition Zposition Zrotation Xrotation Yrotation
    JOINT r_low_leg
    {
      OFFSET 0.901622 -41.0132 -0.693059
      CHANNELS 6 Xposition Yposition Zposition Zrotation Xrotation Yrotation
      JOINT r_foot
      {
        OFFSET 2.46068 -42.7371 -6.39839
        CHANNELS 6 Xposition Yposition Zposition Zrotation Xrotation Yrotation
        JOINT r_toes
        {
          OFFSET -0.82413 -10.4558 13.2182
          CHANNELS 6 Xposition Yposition Zposition Zrotation Xrotation Yrotation
          End Site
          {
            OFFSET 0 0 0.1
          }
        }
      }
    }
  }
}
MOTION
Frames: 7
Frame Time: 0.016667
0 98.6856 0 -0 0 -0 0 5.37224 -1.21793 -0 0 -0 0 5.94127 1.13336 -0 0 -0 -1.08535e-17 6.33601 0.121658 -0 0 -0 -1.16841e-17 6.88189 -0.46916 -0 0 -0 -2.08699e-17 8.0451 -1.59297 -0 0 -0 -2.67949e-17 10.0463 -0.967353 -0 0 -0 -3.07187e-17 11.1612 1.66806 -0 0 -0 -1.36661e-17 5.06312 0.756688 -0 0 -0 -1.91632e-17 5.09976 0.446172 -0 0 -0 -2.12574e-17 5.10962 0.809285 -0 0 -0 1.30426 -8.04703 7.96922 -0 0 -0 13.7035 3.43734 -3.45766 -0 0 -0 30.8964 0.0632652 0.14496 -0 0 -0 25.6348 0.0524902 0.120274 -0 0 -0 -1.30426 -8.04702 7.96912 -0 0 -0 -13.7035 3.43734 -3.45766 -0 0 -0 -30.8964 0.0632652 0.14496 -0 0 -0 -25.6348 0.0524901 0.120274 -0 0 -0 9.77065 -4.44866 2.1502 -0 0 -0 -0.901622 -41.0132 -0.693059 -0 0 -0 -2.46068 -42.7371 -6.39839 -0 0 -0 0.82413 -10.4558 13.2182 -0 0 -0 -9.77065 -4.44866 2.1502 -0 0 -0 0.901622 -41.0132 -0.693059 -0 0 -0 2.46068 -42.7371 -6.39839 -0 0 -0 -0.82413 -10.4558 13.2182 -0 0 -0 
4.48243 98.1646 1.4106 0.982658 -0.641586 -11.2243 0 5.37224 -1.21793 -0.90001 -0.0362579 0.910249 0 5.94127 1.13336 -0.756871 0.381145 0.78337 -1.08535e-17 6.33601 0.121658 -0.575218 1.09716 0.891434 -1.16841e-17 6.88189 -0.46916 -0.409077 1.92187 0.89564 -2.08699e-17 8.0451 -1.59297 -0.0230295 2.16969 0.94761 -2.67949e-17 10.0463 -0.967353 0.513761 2.00043 0.63015 -3.07187e-17 11.1612 1.66806 0.124996 0.723061 -0.297261 -1.36661e-17 5.06312 0.756688 0.446794 3.04316 -2.96931 -1.91632e-17 5.09976 0.446172 1.95428 0.676762 -1.53833 -2.12574e-17 5.10962 0.809285 3.00469 2.81078 1.34204 1.30426 -8.04703 7.96922 -1.55327 3.50791 -3.01053 13.7035 3.43734 -3.45766 -78.2357 23.2253 -5.89632 30.8964 0.0632652 0.14496 2.26514 -0.205895 -10.9789 25.6348 0.0524902 0.120274 -0.958458 -15.4085 -2.4624 -1.30426 -8.04702 7.96912 -8.66465 -1.44594 -1.88607 -13.7035 3.43734 -3.45766 70.1166 36.1217 20.3262 -30.8964 0.0632652 0.14496 -11.7887 -14.3363 101.829 -25.6348 0.0524901 0.120274 56.998 -82.1612 54.7868 9.77065 -4.44866 2.1502 -0.329398 -0.621665 -8.53197 -0.901622 -41.0132 -0.693059 0.00485358 -0.0181109 0.000316894 -2.46068 -42.7371 -6.39839 0.0162842 -1.17648 15.272 0.82413 -10.4558 13.2182 -3.04929e-16 -8.05444e-16 2.27296e-17 -9.77065 -4.44866 2.1502 -4.05522 -2.75991 19.159 0.901622 -41.0132 -0.693059 0.91993 3.43563 0.0323934 2.46068 -42.7371 -6.39839 0.792444 -3.26072 -15.4088 -0.82413 -10.4558 13.2182 -5.96354e-16 -5.59082e-16 -1.27471e-14 
4.48202 98.1643 1.41096 0.980981 -0.639687 -11.2275 0 5.37224 -1.21793 -0.898935 -0.0514564 0.910707 0 5.94127 1.13336 -0.756305 0.370949 0.783903 -1.08535e-17 6.33601 0.121658 -0.575134 1.09264 0.891803 -1.16841e-17 6.88189 -0.46916 -0.409475 1.92683 0.895849 -2.08699e-17 8.0451 -1.59297 -0.0239328 2.18033 0.947943 -2.67949e-17 10.0463 -0.967353 0.512552 2.01433 0.630883 -3.07187e-17 11.1612 1.66806 0.124986 0.721651 -0.297718 -1.36661e-17 5.06312 0.756688 0.447108 3.05634 -2.95655 -1.91632e-17 5.09976 0.446172 1.94671 0.68306 -1.53255 -2.12574e-17 5.10962 0.809285 3.00058 2.82165 1.34423 1.30426 -8.04703 7.96922 -1.55293 3.4996 -3.00748 13.7035 3.43734 -3.45766 -78.2315 23.2392 -5.90105 30.8964 0.0632652 0.14496 2.26259 -0.205415 -10.9665 25.6348 0.0524902 0.120274 -0.96578 -15.4284 -2.46216 -1.30426 -8.04702 7.96912 -8.66827 -1.45446 -1.89163 -13.7035 3.43734 -3.45766 70.0945 36.1327 20.3562 -30.8964 0.0632652 0.14496 -11.79 -14.3297 101.796 -25.6348 0.0524901 0.120274 56.4918 -82.1234 54.2887 9.77065 -4.44866 2.1502 -0.328452 -0.619573 -8.52972 -0.901622 -41.0132 -0.693059 0.00583728 -0.0217814 0.000381306 -2.46068 -42.7371 -6.39839 0.0178837 -1.17898 15.2721 0.82413 -10.4558 13.2182 1.5431e-16 -7.91093e-16 8.37837e-18 -9.77065 -4.44866 2.1502 -4.05296 -2.76144 19.1675 0.901622 -41.0132 -0.693059 0.920109 3.4363 0.0323943 2.46068 -42.7371 -6.39839 0.794866 -3.2621 -15.4087 -0.82413 -10.4558 13.2182 -5.96354e-16 -5.59082e-16 -1.27471e-14 
4.48115 98.1647 1.41135 0.975691 -0.643958 -11.2335 0 5.37224 -1.21793 -0.896666 -0.0639633 0.911991 0 5.94127 1.13336 -0.754908 0.362727 0.785453 -1.08535e-17 6.33601 0.121658 -0.574549 1.08937 0.893213 -1.16841e-17 6.88189 -0.46916 -0.409753 1.93174 0.897154 -2.08699e-17 8.0451 -1.59297 -0.0248371 2.19013 0.94937 -2.67949e-17 10.0463 -0.967353 0.511384 2.0271 0.632742 -3.07187e-17 11.1612 1.66806 0.125018 0.720311 -0.29806 -1.36661e-17 5.06312 0.756688 0.446984 3.06276 -2.9344 -1.91632e-17 5.09976 0.446172 1.93779 0.684632 -1.52243 -2.12574e-17 5.10962 0.809285 2.99064 2.83158 1.34269 1.30426 -8.04703 7.96922 -1.5525 3.49277 -3.00472 13.7035 3.43734 -3.45766 -78.2293 23.2559 -5.90487 30.8964 0.0632652 0.14496 2.26083 -0.205084 -10.9578 25.6348 0.0524902 0.120274 -0.976032 -15.4522 -2.45899 -1.30426 -8.04702 7.96912 -8.66581 -1.4613 -1.89527 -13.7035 3.43734 -3.45766 70.0715 36.1376 20.3811 -30.8964 0.0632652 0.14496 -11.7911 -14.3247 101.771 -25.6348 0.0524901 0.120274 55.9281 -82.0737 53.7326 9.77065 -4.44866 2.1502 -0.323936 -0.614297 -8.5302 -0.901622 -41.0132 -0.693059 0.00493768 -0.0184247 0.000322398 -2.46068 -42.7371 -6.39839 0.0200578 -1.18132 15.2722 0.82413 -10.4558 13.2182 4.22417e-16 -7.82715e-16 2.88531e-33 -9.77065 -4.44866 2.1502 -4.04687 -2.76029 19.1769 0.901622 -41.0132 -0.693059 0.921818 3.44268 0.0324031 2.46068 -42.7371 -6.39839 0.79452 -3.25838 -15.4084 -0.82413 -10.4558 13.2182 -7.93608e-16 -5.52918e-16 -1.27347e-14 
4.48005 98.1656 1.41174 0.960308 -0.650764 -11.2394 0 5.37224 -1.21793 -0.890555 -0.0731401 0.912954 0 5.94127 1.13336 -0.750038 0.357027 0.787228 -1.08535e-17 6.33601 0.121658 -0.571206 1.08771 0.894918 -1.16841e-17 6.88189 -0.46916 -0.407947 1.93677 0.898851 -2.08699e-17 8.0451 -1.59297 -0.024324 2.19902 0.950893 -2.67949e-17 10.0463 -0.967353 0.510908 2.03874 0.634546 -3.07187e-17 11.1612 1.66806 0.125053 0.718915 -0.29815 -1.36661e-17 5.06312 0.756688 0.446364 3.06041 -2.91236 -1.91632e-17 5.09976 0.446172 1.92973 0.681303 -1.51232 -2.12574e-17 5.10962 0.809285 2.97408 2.8401 1.34419 1.30426 -8.04703 7.96922 -1.55255 3.48723 -3.00259 13.7035 3.43734 -3.45766 -78.2322 23.2738 -5.90911 30.8964 0.0632652 0.14496 2.25956 -0.204845 -10.9516 25.6348 0.0524902 0.120274 -0.983876 -15.4793 -2.45708 -1.30426 -8.04702 7.96912 -8.65578 -1.46619 -1.89454 -13.7035 3.43734 -3.45766 70.0506 36.1303 20.4003 -30.8964 0.0632652 0.14496 -11.7917 -14.3218 101.757 -25.6348 0.0524901 0.120274 55.3744 -82.0189 53.1866 9.77065 -4.44866 2.1502 -0.309014 -0.606934 -8.53281 -0.901622 -41.0132 -0.693059 0.00259529 -0.00968422 0.000169258 -2.46068 -42.7371 -6.39839 0.0241201 -1.18878 15.2723 0.82413 -10.4558 13.2182 2.91425e-16 -7.86808e-16 4.09351e-18 -9.77065 -4.44866 2.1502 -4.03008 -2.758 19.1881 0.901622 -41.0132 -0.693059 0.924787 3.45376 0.032418 2.46068 -42.7371 -6.39839 0.793892 -3.24633 -15.4081 -0.82413 -10.4558 13.2182 -8.62931e-16 -5.50751e-16 -1.27304e-14 
4.4795 98.1665 1.41228 0.939938 -0.655867 -11.2373 0 5.37224 -1.21793 -0.881589 -0.0798531 0.912998 0 5.94127 1.13336 -0.742436 0.353156 0.788554 -1.08535e-17 6.33601 0.121658 -0.565595 1.08707 0.896231 -1.16841e-17 6.88189 -0.46916 -0.404264 1.94151 0.900256 -2.08699e-17 8.0451 -1.59297 -0.0224641 2.20674 0.951853 -2.67949e-17 10.0463 -0.967353 0.511084 2.04896 0.635663 -3.07187e-17 11.1612 1.66806 0.125058 0.717571 -0.297909 -1.36661e-17 5.06312 0.756688 0.444429 3.0488 -2.90413 -1.91632e-17 5.09976 0.446172 1.92237 0.675811 -1.50864 -2.12574e-17 5.10962 0.809285 2.95978 2.84745 1.35118 1.30426 -8.04703 7.96922 -1.55522 3.4829 -3.00165 13.7035 3.43734 -3.45766 -78.2382 23.2898 -5.91584 30.8964 0.0632652 0.14496 2.25842 -0.204629 -10.946 25.6348 0.0524902 0.120274 -0.983634 -15.5019 -2.4629 -1.30426 -8.04702 7.96912 -8.63771 -1.46917 -1.88812 -13.7035 3.43734 -3.45766 70.0374 36.1083 20.4109 -30.8964 0.0632652 0.14496 -11.7919 -14.3208 101.752 -25.6348 0.0524901 0.120274 54.9208 -81.9742 52.7437 9.77065 -4.44866 2.1502 -0.289544 -0.599424 -8.5381 -0.901622 -41.0132 -0.693059 0.000788432 -0.00294202 5.13734e-05 -2.46068 -42.7371 -6.39839 0.0269392 -1.19969 15.2728 0.82413 -10.4558 13.2182 -3.98826e-17 -7.97162e-16 1.44469e-17 -9.77065 -4.44866 2.1502 -4.00899 -2.75607 19.1967 0.901622 -41.0132 -0.693059 0.928205 3.46652 0.0324344 2.46068 -42.7371 -6.39839 0.7958 -3.23248 -15.4082 -0.82413 -10.4558 13.2182 -5.96354e-16 -5.59082e-16 -1.27471e-14 
4.47981 98.1666 1.41295 0.939947 -0.656262 -11.2273 0 5.37224 -1.21793 -0.876519 -0.0884394 0.914568 0 5.94127 1.13336 -0.738761 0.348006 0.791167 -1.08535e-17 6.33601 0.121658 -0.563316 1.0856 0.898799 -1.16841e-17 6.88189 -0.46916 -0.403448 1.94628 0.903002 -2.08699e-17 8.0451 -1.59297 -0.0225559 2.21506 0.954626 -2.67949e-17 10.0463 -0.967353 0.510557 2.05984 0.638995 -3.07187e-17 11.1612 1.66806 0.124957 0.716123 -0.297423 -1.36661e-17 5.06312 0.756688 0.438982 3.02444 -2.90975 -1.91632e-17 5.09976 0.446172 1.91108 0.673538 -1.51163 -2.12574e-17 5.10962 0.809285 2.9548 2.85064 1.34704 1.30426 -8.04703 7.96922 -1.56426 3.47993 -3.00242 13.7035 3.43734 -3.45766 -78.2368 23.2968 -5.92653 30.8964 0.0632652 0.14496 2.2583 -0.204606 -10.9454 25.6348 0.0524902 0.120274 -0.977524 -15.5066 -2.47423 -1.30426 -8.04702 7.96912 -8.60417 -1.46995 -1.87571 -13.7035 3.43734 -3.45766 70.03 36.074 20.4088 -30.8964 0.0632652 0.14496 -11.7917 -14.3215 101.755 -25.6348 0.0524901 0.120274 54.6508 -81.9514 52.4896 9.77065 -4.44866 2.1502 -0.289693 -0.606066 -8.54764 -0.901622 -41.0132 -0.693059 -0.00313343 0.0116924 -0.000203772 -2.46068 -42.7371 -6.39839 0.0207302 -1.20502 15.2738 0.82413 -10.4558 13.2182 -3.7119e-16 -8.07515e-16 2.48002e-17 -9.77065 -4.44866 2.1502 -4.00972 -2.7585 19.197 0.901622 -41.0132 -0.693059 0.931078 3.47725 0.0324476 2.46068 -42.7371 -6.39839 0.797016 -3.23629 -15.4088 -0.82413 -10.4558 13.2182 -5.96354e-16 -5.59082e-16 -1.27471e-14 
